<svg width="806" height="713" viewBox="0 0 806 713" fill="none" xmlns="http://www.w3.org/2000/svg">
<g id="undraw_My_location_re_r52x 1" clip-path="url(#clip0)">
<g id="women">
<path id="Vector" d="M424.792 381.964C425.75 380.483 427.009 379.221 428.489 378.261C429.969 377.3 431.634 376.664 433.377 376.392C435.12 376.12 436.901 376.22 438.602 376.685C440.304 377.149 441.888 377.968 443.251 379.087C443.681 379.443 444.086 379.829 444.462 380.242L493.673 373.078L496.411 336.073C496.621 333.234 497.95 330.595 500.106 328.735C502.261 326.876 505.067 325.949 507.906 326.159C510.745 326.369 513.385 327.698 515.244 329.853C517.103 332.009 518.03 334.815 517.82 337.654C517.815 337.72 517.81 337.786 517.804 337.852L513.006 389.777L512.983 389.892C512.359 391.888 511.108 393.63 509.415 394.858C507.723 396.087 505.68 396.737 503.588 396.713L445.706 395.713C445.481 396.056 445.239 396.387 444.98 396.705C443.86 398.068 442.465 399.179 440.886 399.965C439.307 400.752 437.579 401.195 435.817 401.267C434.055 401.34 432.297 401.039 430.659 400.384C429.021 399.729 427.539 398.736 426.312 397.469C426.063 397.214 425.827 396.95 425.604 396.678C423.936 394.624 422.959 392.095 422.813 389.453C422.667 386.811 423.36 384.19 424.792 381.964V381.964Z" fill="#FFB7B7"/>
<path id="Vector_2" d="M524.006 697.479L509.97 697.478L503.293 643.341L524.008 643.342L524.006 697.479Z" fill="#FFB7B7"/>
<path id="Vector_3" d="M527.585 711.084L482.329 711.082V710.51C482.329 705.838 484.185 701.358 487.488 698.055C490.792 694.751 495.272 692.895 499.944 692.895H499.945L527.586 692.896L527.585 711.084Z" fill="#2F2E41"/>
<path id="Vector_4" d="M622.082 684.754L608.798 689.284L585 640.202L604.607 633.515L622.082 684.754Z" fill="#FFB7B7"/>
<path id="Vector_5" d="M629.862 696.475L587.029 711.084L586.844 710.542C585.336 706.121 585.646 701.281 587.706 697.088C589.766 692.895 593.407 689.692 597.829 688.184L597.83 688.184L623.991 679.261L629.862 696.475Z" fill="#2F2E41"/>
<path id="Vector_6" d="M539.461 224.126C539.461 224.126 525.491 219.512 516.511 237.967C507.53 256.421 493.56 276.721 493.56 276.721L501.543 278.567C501.543 278.567 503.539 265.648 508.528 263.803L506.532 280.412C506.532 280.412 566.403 299.789 593.345 278.567L592.347 272.108C592.347 272.108 596.339 273.03 596.339 278.567L599.332 275.798C599.332 275.798 596.339 270.262 587.358 262.88C581.464 258.035 579.438 248.818 578.742 243.055C578.19 238.175 576.098 233.599 572.769 229.989C566.801 223.593 555.926 216.795 539.461 224.126Z" fill="#2F2E41"/>
<path id="Vector_7" d="M544.611 288.603C558.702 288.603 570.126 277.179 570.126 263.088C570.126 248.996 558.702 237.572 544.611 237.572C530.519 237.572 519.096 248.996 519.096 263.088C519.096 277.179 530.519 288.603 544.611 288.603Z" fill="#FFB7B7"/>
<path id="Vector_8" d="M510.59 309.613L505.951 308.067C505.951 308.067 496.673 311.933 496.673 318.891C496.673 325.85 495.127 353.685 495.127 353.685L516.003 356.004L510.59 309.613Z" fill="#CBCBCB"/>
<path id="Vector_9" d="M593.622 461.697C591.698 459.541 590.612 456.766 590.561 453.877C590.511 450.987 591.499 448.176 593.346 445.953L580.323 336.887C580.196 334.315 581.094 331.797 582.82 329.886C584.547 327.976 586.961 326.829 589.533 326.696C592.104 326.563 594.624 327.457 596.538 329.18C598.452 330.903 599.604 333.314 599.741 335.886C599.743 335.922 599.745 335.957 599.746 335.993L611.397 445.175C611.819 445.599 612.208 446.055 612.561 446.539C613.496 447.831 614.167 449.295 614.535 450.846C614.904 452.398 614.964 454.007 614.711 455.581C614.458 457.156 613.897 458.665 613.061 460.023C612.225 461.381 611.129 462.561 609.837 463.495C609.703 463.592 609.567 463.686 609.429 463.777C607.933 464.768 606.236 465.414 604.461 465.671C602.685 465.928 600.875 465.788 599.159 465.262C597.017 464.613 595.1 463.379 593.622 461.697Z" fill="#FFB7B7"/>
<path id="Vector_10" d="M581.695 353.685L602.571 351.365C602.571 351.365 601.025 323.53 601.025 316.572C601.025 309.613 591.746 305.747 591.746 305.747L587.107 307.293L581.695 353.685Z" fill="#CBCBCB"/>
<path id="Vector_11" d="M513.683 392.305C513.683 392.305 495.9 424.818 495.9 464.25C495.9 503.683 494.353 684.609 494.353 684.609C494.353 684.609 517.549 695.434 531.466 682.289L543.837 482.034L592.548 678.423C592.548 678.423 615.744 683.063 626.569 675.331L605.693 538.477C605.693 538.477 597.187 410.127 573.992 400.849C550.796 391.571 513.683 392.305 513.683 392.305Z" fill="#2F2E41"/>
<path id="Vector_12" d="M517.039 263.249C526.072 256.712 533.384 249.183 538.22 240.227C538.22 240.227 554.797 258.645 564.927 259.566C575.057 260.487 565.848 237.464 565.848 237.464L547.429 232.859L529.932 234.701L516.118 243.91L517.039 263.249Z" fill="#2F2E41"/>
<path id="Vector_13" d="M570.126 301.108C570.126 301.108 570.862 300.713 526.83 302.317L508.401 307.392L505.951 308.067C505.951 308.067 508.271 354.458 514.456 362.963C520.642 371.468 519.095 376.107 517.549 376.88C516.003 377.653 512.137 376.107 514.456 379.973C516.776 383.839 519.868 381.519 516.776 383.839C513.683 386.159 512.137 394.664 512.137 394.664L580.177 403.942C580.177 403.942 582.497 373.788 588.682 358.324C594.868 342.86 596.414 336.675 596.414 336.675L591.775 305.747L570.126 301.108Z" fill="#CBCBCB"/>
</g>
<g id="pohne">
<path id="Vector_14" d="M440.767 169.224H436.854V62.0368C436.854 45.5837 430.318 29.8044 418.684 18.1702C407.05 6.53604 391.271 2.65219e-05 374.817 2.33258e-10L147.728 2.33265e-10C131.274 -4.50866e-05 115.495 6.53591 103.861 18.17C92.2268 29.8041 85.6908 45.5834 85.6907 62.0366V650.072C85.6907 666.525 92.2267 682.304 103.861 693.938C115.495 705.572 131.274 712.108 147.727 712.108H374.817C382.964 712.108 391.031 710.504 398.558 707.386C406.084 704.269 412.923 699.699 418.684 693.938C424.444 688.178 429.014 681.339 432.132 673.812C435.249 666.286 436.854 658.219 436.854 650.072V650.072V245.521H440.767L440.767 169.224Z" fill="#3F3D56"/>
<path id="Vector_15" d="M423.651 62.4727V649.643C423.656 655.721 422.464 661.742 420.143 667.36C417.822 672.978 414.417 678.084 410.123 682.386C405.828 686.688 400.728 690.102 395.114 692.433C389.5 694.765 383.482 695.967 377.404 695.973H149.141C136.862 695.981 125.083 691.112 116.394 682.436C107.706 673.759 102.82 661.987 102.811 649.708V62.4727C102.807 56.3928 104 50.3716 106.323 44.7529C108.645 39.1342 112.052 34.0281 116.348 29.7259C120.644 25.4238 125.745 22.0099 131.361 19.6793C136.976 17.3487 142.996 16.1469 149.076 16.1427H176.821C175.458 19.4847 174.937 23.1107 175.306 26.7011C175.674 30.2916 176.92 33.7364 178.934 36.7319C180.947 39.7275 183.666 42.1818 186.852 43.8787C190.038 45.5756 193.592 46.463 197.201 46.4627H327.301C330.91 46.463 334.464 45.5756 337.65 43.8787C340.835 42.1818 343.555 39.7275 345.568 36.7319C347.582 33.7364 348.828 30.2916 349.196 26.7011C349.564 23.1107 349.044 19.4847 347.681 16.1427H377.321C389.597 16.1316 401.375 20.9979 410.064 29.6709C418.752 38.3438 423.64 50.1131 423.651 62.3896V62.4727L423.651 62.4727Z" fill="white"/>
<path id="Vector_16" d="M423.651 149.343V129.343H393.381V19.0027C388.24 17.104 382.801 16.1355 377.321 16.1426H373.381V129.343H268.381V46.4627H248.381V129.343H160.381V16.1427H149.141C146.201 16.1381 143.268 16.416 140.381 16.9727V129.343H102.811V149.343H140.381V195.603L102.811 217.293V240.393L140.381 218.703V356.343H102.811V376.343H140.381V575.343H102.811V595.343H140.381V695.143C143.268 695.699 146.201 695.977 149.141 695.973H160.381V595.343H248.381V695.973H268.381V595.343H373.381V695.973H377.321C382.801 695.98 388.24 695.011 393.381 693.113V595.343H423.651V575.343H393.381V488.343H423.381V468.343H393.381V376.343H423.651V356.343H393.381V234.343H423.651V214.343H393.381V149.343L423.651 149.343ZM220.512 149.343L220.511 149.343L160.381 184.063L160.381 184.063V149.343H220.512ZM160.381 207.153L160.381 207.153L248.381 156.343V356.343H160.381V207.153ZM160.381 575.343V376.343H248.381V575.343H160.381ZM373.381 575.343H268.381V488.343H373.381V575.343ZM373.381 468.343H268.381V376.343H373.381V468.343ZM373.381 356.343H268.381V234.343H373.381V356.343ZM373.381 214.343H268.381V149.343H373.381V214.343Z" fill="#E5E5E5"/>
</g>
<g id="locavatar">
<g id="locavatar_2">
<path id="Vector_17" d="M378 131C378 194.513 263 336 263 336C263 336 148 194.513 148 131C148 100.5 160.116 71.2494 181.683 49.6827C203.249 28.116 232.5 16 263 16C293.5 16 322.751 28.116 344.317 49.6827C365.884 71.2494 378 100.5 378 131V131Z" fill="#00B0FF"/>
<path id="Vector_18" d="M331.001 126C331.001 139.449 327.013 152.596 319.541 163.779C312.069 174.961 301.449 183.677 289.024 188.824C276.598 193.971 262.926 195.317 249.735 192.693C236.544 190.07 224.428 183.593 214.918 174.083C205.408 164.573 198.932 152.457 196.308 139.266C193.684 126.075 195.031 112.403 200.178 99.9775C205.324 87.5522 214.04 76.932 225.223 69.4601C236.405 61.9881 249.552 58 263.001 58C271.927 57.9959 280.766 59.7499 289.014 63.1619C297.262 66.5738 304.757 71.5769 311.072 77.8855C317.386 84.1941 322.396 91.6846 325.816 99.9294C329.235 108.174 330.997 117.012 331.001 125.938V126Z" fill="white"/>
</g>
<path id="Vector_19" d="M262.765 152.843C276.756 152.843 288.098 141.501 288.098 127.51C288.098 113.519 276.756 102.176 262.765 102.176C248.773 102.176 237.431 113.519 237.431 127.51C237.431 141.501 248.773 152.843 262.765 152.843Z" fill="#00B0FF"/>
<path id="Vector_20" d="M299.531 185.37C288.61 192.314 275.936 196.002 262.995 196C250.053 195.998 237.38 192.307 226.461 185.36C228.732 177.422 233.527 170.44 240.119 165.469C246.712 160.499 254.744 157.811 263 157.812C271.256 157.813 279.288 160.503 285.879 165.476C292.47 170.448 297.262 177.431 299.531 185.37V185.37Z" fill="#00B0FF"/>
</g>
<g id="dot">
<path id="Vector_21" d="M263 427C280.121 427 294 413.121 294 396C294 378.879 280.121 365 263 365C245.879 365 232 378.879 232 396C232 413.121 245.879 427 263 427Z" fill="#00B0FF"/>
</g>
</g>
<defs>
<clipPath id="clip0">
<rect width="806" height="712.713" fill="white"/>
</clipPath>
</defs>
</svg>
